<?xml version="1.0" encoding="UTF-8"?>
<!-- Generator: Adobe Illustrator 22.1.0, SVG Export Plug-In . SVG Version: 6.00 Build 0)  -->
<svg version="1.1" id="Layer_1" xmlns="http://www.w3.org/2000/svg" xmlns:xlink="http://www.w3.org/1999/xlink" x="0px" y="0px" viewBox="0 0 80.8 88.8" style="enable-background:new 0 0 80.8 88.8;" xml:space="preserve">
<style type="text/css">
	.st0{fill:#00FFC2;}
	.st1{fill:#666567;}
</style>
<title>Asset 1</title>
<path class="st0" d="M60,65c-9.1-0.7-18.5,0.1-27.6,0.7c-8.1,0.5-17.2-0.1-25.2,1.6c-0.5,0.2-0.7,0.7-0.6,1.2  c0.1,0.2,0.2,0.3,0.4,0.5c7.2,3.7,17.7,1.1,25.4,0.6c9.2-0.6,18.7-1.1,27.8-3C61.1,66.3,60.8,65,60,65z"/>
<path class="st0" d="M63.9,64.2c-3.9,0.2-7.8,0.3-11.8,0.3c-1.9,0-1.9,3.1,0,3.2c3.9,0.1,7.8,0.1,11.8,0.1c3.1,0,6.4,0.5,9-1.4  c0.4-0.3,0.5-0.8,0.2-1.2C73,65,73,64.9,72.9,64.9C70.1,63.2,66.9,64,63.9,64.2z"/>
<path class="st0" d="M75.7,62.7c-0.9,0.2-1.8,0.7-2.7,0.8s-1.8,0.4-2.8,0.6c-1.5,0.4-0.8,2.7,0.6,2.4c0.9-0.2,1.8-0.4,2.7-0.5  c0.9,0,1.7,0.1,2.6,0.2C78.5,66.5,78.2,62.2,75.7,62.7z"/>
<path class="st1" d="M20.8,54c0-0.2,0-0.4,0-0.6h-0.5L20.8,54z"/>
<path class="st1" d="M66.5,50.9c0,0-0.1,0-0.1,0S66.6,50.7,66.5,50.9z"/>
<path class="st1" d="M67.3,47.5c-0.2-3.7-0.3-7.5-0.4-11.2l-0.4-11.2c-0.1-2,0.6-6.1-2-6.5c-1.7-0.1-3.4-0.1-5.1,0l-5.8,0.1  c-3.8,0.1-7.7,0.1-11.5,0.2c-7.9,0.2-15.8,0.5-23.7,0.8c-0.1,0-0.1,0.1-0.1,0.1c0,0,0,0,0,0.1l0.1,0.1l0,0  C31.2,20.1,44,20.2,56.9,20l4.4,0c0.8-0.1,1.6-0.1,2.4,0c1.4,0.6,1.2,2,1.3,3.3l0.4,10.1l0.4,10.5l0.2,4.7c0,0.5,0,1,0.1,1.5  c0,0.3,0.1,0.5,0.2,0.8c0,0.1,0,0.1,0,0.1s0.1,0,0.1,0c0.2-0.2,0,0.1-0.1,0c-0.4,0.1-0.8,0.2-1.2,0.2c-0.9,0.1-1.8,0.2-2.7,0.3  c-2.5,0.2-5.1,0.4-7.6,0.6c-6.6,0.5-13.2,0.8-19.8,1.1c-3.2,0.1-6.3,0.2-9.5,0.3c-1.6,0.1-3.2,0.1-4.7,0c0,0.2,0,0.4,0,0.6l-0.5-0.7  h0.5c-0.5-11-1.3-22-2.3-33c0-0.2-0.1-0.3-0.2-0.5c0,0-0.1,0-0.1-0.1c-0.3-0.2-0.7-0.2-0.9,0.1c-0.1,0.1-0.1,0.3-0.1,0.4  c1,11.2,1.8,22.4,2.3,33.6c0,0.3,0.2,0.6,0.5,0.7c4.4,0.7,9.1,0.1,13.5-0.1c7.1-0.3,14.2-0.7,21.3-1.2c2.7-0.2,5.4-0.4,8.2-0.6  c1.1-0.1,2.9,0,3.9-0.5c0.2-0.1,0.4-0.3,0.5-0.5c0.1-0.4,0.1-0.9,0-1.3L67.3,47.5z"/>
<path class="st1" d="M18.3,19.9L18.3,19.9C18.2,19.9,18.3,19.9,18.3,19.9z"/>
<path class="st1" d="M18.4,21.4l0.6-0.1c0-0.2,0-0.4,0-0.6L18.4,21.4z"/>
<path class="st1" d="M64.5,18.1c-7.9,0.1-15.8,1-23.7,1.3c-3.9,0.1-7.7,0.1-11.6,0c-3.6-0.1-7.5-0.2-11,0.7  c-0.3,0.1-0.5,0.5-0.4,0.8c0.3,2.2,0.4,4.4,0.7,6.6c0,0.3,0.4,0.2,0.4-0.1c0.1-2,0-4.1,0.1-6.1l-0.6,0.1l0.6-0.6c0,0.2,0,0.4,0,0.6  c7.5-0.9,15-0.2,22.5-0.5c7.7-0.2,15.4-1,23.1-2.4C64.7,18.4,64.7,18.1,64.5,18.1z"/>
<path class="st1" d="M63.9,18.3c-0.1,0-0.1,0.1,0,0.2c0.6,0.4,1.1,1,1.3,1.7c0,0.1,0.2,0,0.2,0c0.2-0.9-0.4-1.7-1.3-1.8  C64,18.3,64,18.3,63.9,18.3z"/>
<path class="st1" d="M64.3,18.2C64.3,18.2,64.3,18.3,64.3,18.2c0,0.1,0,0.1,0,0.1c0.7,0.3,1.1,0.9,1.1,1.6c0,0,0,0.1,0.1,0.1  c0,0,0.1,0,0.1-0.1C65.8,19.2,65.2,18,64.3,18.2z"/>
<path class="st1" d="M60.5,23.2c0,0.1,0,0.3,0,0.4h0.3L60.5,23.2z"/>
<path class="st1" d="M60.8,22.9c-11.1,1-22.2,1.3-33.4,1.3c0,0-0.1,0.1,0,0.1c0,0,0,0,0,0c11,0.6,22.1,0.4,33.1-0.7  c0-0.1,0-0.3,0-0.4l0.3,0.4h-0.3c0.7,6.5,1,13.1,1.7,19.7c0,0.1,0.2,0.1,0.2,0c0-6.7-0.4-13.4-1.2-20C61.1,23.1,61,22.9,60.8,22.9z"/>
<path class="st1" d="M27.3,33.8C27.3,33.8,27.3,33.9,27.3,33.8c3.6-1.8,7.1-3.6,10.8-5.3c0,0,0-0.1,0-0.1  C34.3,29.9,30.7,31.7,27.3,33.8z"/>
<path class="st1" d="M27.3,36.9l0.2-0.2c-0.3,0.2-0.7,0.4-1,0.7C25.7,38.1,27.2,37,27.3,36.9z"/>
<path class="st1" d="M28.5,36.1l-0.9,0.6l-0.2,0.2c-0.1,0.1-1.6,1.2-0.8,0.5c0.3-0.2,0.6-0.5,1-0.7c1.2-1,2.5-2,3.7-3  c2.5-1.9,5.1-3.7,7.8-5.4c0.1-0.1,0-0.2-0.1-0.2c-4.6,3-9,6.2-13.2,9.8c-0.1,0.1,0,0.2,0.1,0.2C32,34,38.4,30.3,45,27.1  c0.1,0,0-0.1,0-0.1C39.3,29.6,33.8,32.7,28.5,36.1z"/>
<path class="st1" d="M52.8,24.5c-9.8,5.4-19.2,11.4-28.1,18 M24.7,42.6c9.4-6.3,18.7-12.1,28.3-17.9c0.1-0.1,0-0.3-0.1-0.2  L24.7,42.6z"/>
<path class="st1" d="M47.1,32.6c-0.1,0.2,1-0.6,1-0.6l0,0C47.7,32.1,47.4,32.3,47.1,32.6z"/>
<path class="st1" d="M44.2,33.3C43.9,33.4,44,33.4,44.2,33.3z"/>
<path class="st1" d="M47.1,31.1l1-0.6c0.2-0.1,0-0.4-0.2-0.3l-0.5,0.3C47.5,30.7,47.3,30.9,47.1,31.1z"/>
<path class="st1" d="M47.3,30.6c-0.1-0.1-0.5,0.2-0.9,0.5L47.3,30.6L47.3,30.6z"/>
<path class="st1" d="M47.1,31.1L47.1,31.1z"/>
<path class="st1" d="M48.1,32L48.1,32c0,0-1.1,0.9-1,0.6C47.4,32.3,47.8,32.1,48.1,32c0.5-0.4,0.9-0.7,1.4-1c0.2-0.1,0-0.4-0.2-0.3  c-1.6,1-3.4,1.8-5.1,2.5h-0.1c-0.2,0.2-0.2,0.1,0,0l0.1-0.1c0.4-0.4,0.9-0.8,1.4-1.2c0.5-0.3,0.9-0.7,1.4-0.9  c-0.3,0.2-0.7,0.3-0.8,0.4L45,32.1c-0.6,0.5-1.1,0.9-1.7,1.4c-0.1,0.1,0,0.3,0.2,0.3c1.3-0.5,2.6-1.1,3.9-1.8c0.3-0.3,0.6-0.5,1-0.7  c1.2-0.6,0,0.2-0.5,0.5l-0.5,0.3l-0.8,0.8c-0.1,0.1,0,0.3,0.2,0.2c1-0.5,2-1,2.9-1.6c0,0,0.1-0.1,0-0.1s-0.1-0.1-0.1,0  C49.4,31.5,48.7,31.7,48.1,32z"/>
<path class="st1" d="M48.4,31.4c-0.4,0.2-0.7,0.5-1,0.7l0.5-0.3C48.4,31.6,49.6,30.7,48.4,31.4z"/>
<path class="st1" d="M46.4,31.1l-7.1,4c0,0,0,0.1,0,0.1c0,0,0.1,0,0.1,0l5.6-3c0.2-0.2,0.5-0.4,0.7-0.6L46.4,31.1z"/>
<path class="st1" d="M47,31.1L47,31.1c0.3-0.2,0.5-0.3,0.2-0.5l-0.9,0.5l-0.7,0.5c-0.3,0.2-0.5,0.4-0.7,0.6l1.3-0.7  C46.4,31.4,46.8,31.3,47,31.1z"/>
<path class="st1" d="M78.7,62L77,62.1c0.4,0.4,0.8,0.7,1.2,1.1L78.7,62z"/>
<path class="st1" d="M67.5,51c-0.6-0.6-1.5,0.4-0.9,1c3.4,3.5,6.9,6.8,10.5,10.1l1.7-0.1l-0.5,1.2c-0.4-0.4-0.8-0.7-1.2-1.1  c-23,1.3-46,2.7-69,4.1c-0.4,0.4-0.8,0.7-1.2,1.1l-0.4-1L8,66.2c4.2-3.8,8.5-7.5,12.3-11.6c0.2-0.2-0.1-0.7-0.4-0.5  c-5,3.7-9.4,8.2-14,12.4c-0.2,0.2-0.2,0.6,0,0.8c0.1,0.1,0.2,0.1,0.4,0.2c24.1-1.4,48.2-2.7,72.3-4c0.4,0,0.7-0.4,0.7-0.8  c0-0.2-0.1-0.3-0.2-0.4C75.2,58.6,71.3,54.9,67.5,51z"/>
<path class="st1" d="M6.8,67.3c0.4-0.4,0.8-0.7,1.2-1.1l-1.6,0.1L6.8,67.3z"/>
<path class="st1" d="M78.6,62.4c-0.1,0.5-0.2,0.9-0.2,1.4c-0.1,1,0,1.5-1,1.8c-1,0.2-2,0.3-3,0.3l-6.7,0.7  c-4.7,0.5-9.5,0.9-14.3,1.3c-10.4,0.9-20.8,1.6-31.3,2c-3,0.1-5.9,0.2-8.9,0.2l-4.1,0.1c-0.7,0-1.6,0.2-2.1-0.3  c-0.4-0.8-0.8-1.7-1-2.6C6,67.1,5.9,67,5.7,67s-0.3,0.2-0.2,0.4c0.3,1.1,0.7,2.2,1,3.3c0,0.2,0.2,0.3,0.4,0.3  c21,1.1,42.2-1.2,63-3.3l7.2-0.7c0.8-0.1,1.8,0,2.3-0.9s0.3-2.6,0.2-3.6C79.6,62,78.7,61.7,78.6,62.4z"/>
<path class="st1" d="M57.5,61c-14-0.2-28.1,0.7-42,2.6c-0.1,0.2-0.3,0.3-0.4,0.4l-0.2-0.4l0.6-0.1c2.2-2.2,4.3-4.6,6.3-7  c0.1-0.1,0-0.3-0.2-0.2c-2.2,2.5-4.5,5-6.9,7.3c-0.1,0.1,0,0.4,0.1,0.4c14.1-1.9,28.3-1.9,42.5-2.8C57.6,61.2,57.6,61,57.5,61z"/>
<path class="st1" d="M15.1,64c0.1-0.1,0.3-0.3,0.4-0.4l-0.6,0.1L15.1,64z"/>
<path class="st1" d="M67.7,56.2c-0.8-1.1-2.2-1.7-2.9-2.9c0-0.1-0.1-0.1-0.2-0.1c-0.1,0-0.1,0.1-0.1,0.1l0,0c0.5,1.4,2,2,2.9,3.1  s1.6,2.3,3,2.7c0,0,0.1-0.1,0-0.1C69.4,58.3,68.4,57.3,67.7,56.2z"/>
<path class="st1" d="M23.2,57.1C23.2,57.1,23.1,57.1,23.2,57.1c-0.1,0.1,0,0.1,0,0.1c8.4,0.1,17,0,25.4-0.6c0.1,0,0.1-0.1,0.1-0.1  c0,0,0-0.1-0.1-0.1C40.2,56.1,31.6,56.5,23.2,57.1z"/>
<path class="st1" d="M37.9,58.5c-4.3-0.1-8.7,0.1-13,0.5c-0.1,0-0.1,0.1,0,0.1c4.3,0.1,8.7,0,13-0.4c0.1,0,0.1-0.1,0.1-0.1  C38,58.5,38,58.5,37.9,58.5z"/>
<path class="st1" d="M24.6,60.4L24.6,60.4C24.6,60.4,24.6,60.3,24.6,60.4z"/>
<path class="st1" d="M26.1,58.5c-0.4,0.3-1.9,1.3-1.7,1.9c0,0,0.1,0.1,0.1,0.1c0.1,0,0.1,0,0.2-0.1c0,0,0-0.1,0-0.1l0,0l0,0h0  c0,0,0-0.1,0,0c0.2-0.2,0.9-0.8,1-0.9c0.4-0.4,0.8-0.8,1.2-1.1c0.8-0.7,1.7-1.4,2.6-2.1c0.1-0.1,0-0.2-0.1-0.1  C28.2,56.8,27.1,57.6,26.1,58.5z"/>
<path class="st1" d="M60.5,54.3c0,0-0.1,0-0.1,0c0,0,0,0,0,0.1c0.7,1.3,1.5,2.6,2.3,3.9c0,0.1,0.1,0.1,0.2,0.1s0.1-0.1,0.1-0.2  c0,0,0,0,0-0.1C62.1,56.7,61.3,55.5,60.5,54.3z"/>
<path class="st1" d="M63.1,54.7C63.1,54.7,63,54.6,63.1,54.7c-0.1-0.1-0.2,0-0.2,0c0,0,0,0,0,0c0.2,0.7,0.5,1.4,0.9,2.1  c0.3,0.6,0.8,1.2,1.3,1.6c0.1,0,0.1,0,0.1-0.1c0,0,0-0.1,0-0.1c-0.3-0.6-0.9-1-1.2-1.6C63.7,56.1,63.3,55.4,63.1,54.7z"/>
<path class="st1" d="M55.2,56.6c-0.1,0-0.1,0.2,0,0.2c3.7-0.3,7.7-0.2,11.4-0.9c0.1,0,0.1-0.2,0-0.2C62.8,55.5,58.9,56.2,55.2,56.6z  "/>
<path class="st1" d="M66.5,57.8c-2.8,0-5.6,0.2-8.3,0.5c-0.1,0-0.1,0.1,0,0.1c2.8-0.1,5.6-0.2,8.3-0.3c0.1,0,0.1-0.1,0.1-0.2  C66.6,57.9,66.5,57.8,66.5,57.8z"/>
<path class="st1" d="M11.9,75.8c-2.4,1.7-4.9,3.3-7.2,5.2c-1.7,1.4-4.2,3-4.7,5.3c-0.1,0.4,0.1,0.8,0.5,0.9c0.1,0,0.2,0,0.3,0  c2.2-0.5,4-3.1,5.5-4.7c1.9-2.1,3.7-4.4,5.7-6.5C12.2,76,12,75.7,11.9,75.8z"/>
<path class="st1" d="M22.7,77.6c-0.9,1.6-1.6,3.3-2.2,5c-0.7,1.7-1.2,3.5-1.4,5.3c0,0.6,0.7,0.7,1,0.3c1.9-2.7,3-7.2,3.2-10.5  c0-0.2-0.1-0.3-0.2-0.3S22.8,77.5,22.7,77.6z"/>
<path class="st1" d="M68.1,74c-0.1-0.1-0.3-0.1-0.4,0c0,0.1-0.1,0.1-0.1,0.2c0.1,2.3,1.1,4.5,1.9,6.6c0.7,1.9,1.2,4.1,2.5,5.7  c0.2,0.2,0.5,0.2,0.7,0c0.1-0.1,0.1-0.2,0.1-0.4c-0.1-2.2-1.4-4.5-2.1-6.6S69.4,75.6,68.1,74z"/>
<path class="st1" d="M78,74.6c-0.9-1.3-1.9-2.5-3.1-3.4c-0.2-0.2-0.4,0.1-0.3,0.4c0.7,1.4,1.6,2.7,2.7,3.9c0.9,1.3,2,2.4,3.1,3.5  c0.2,0.2,0.5-0.2,0.3-0.4C80,77.1,79.1,75.8,78,74.6z"/>
<path class="st1" d="M32.6,7c-0.7-1.8-1.6-4.7-3.8-4.6c-0.2,0-0.4,0.2-0.5,0.4c-0.4,1.9,1.3,4,2,5.7c0.4,1.1,1.1,2,1.8,2.9  c1.1,1.4,2,3,2.6,4.7c0,0.1,0.2,0,0.2-0.1c-0.7-1.7-1.3-3.4-1.5-5.2C33.4,9.5,33.1,8.2,32.6,7z"/>
<path class="st1" d="M48.6-0.1c-1,1.6-1.5,3.4-1.5,5.2c0,1.1,0.2,2.1,0.2,3.2C47.3,9.6,47,10.8,47,12c0,0.1,0.1,0.1,0.2,0.1  c0,0,0.1-0.1,0.1-0.1c0.4-1.2,0.5-2.4,0.8-3.6c0.3-1.1,0.8-2,1.1-3c0.5-1.8,0.6-3.6,0.1-5.4c0-0.2-0.2-0.3-0.4-0.2  C48.7-0.2,48.7-0.2,48.6-0.1z"/>
<path class="st1" d="M62.1,3.4L60,7.3c-0.6,1-1,2.1-1.2,3.3c0,0.1,0.1,0.3,0.2,0.3c0.1,0,0.1,0,0.2-0.1c0.7-0.9,1.3-1.9,1.6-3.1  c0.5-1.4,0.9-2.8,1.4-4.2c0-0.1,0-0.1,0-0.2C62.2,3.3,62.1,3.3,62.1,3.4L62.1,3.4z"/>
<path class="st1" d="M11.5,31.2c-0.2-0.2-0.6,0.1-0.3,0.3l0.3,0.2c0.1,0,0.2,0,0.2-0.1c0-0.1,0-0.1,0-0.2  C11.7,31.4,11.6,31.3,11.5,31.2z"/>
<path class="st1" d="M9.7,70.5c-0.9,0-2.1,0.1-2.7-0.7s-1.4-2.8-0.4-3.3C6.8,66.4,6.7,66,6.5,66c-0.7,0-1.3,0.6-1.3,1.3  c0,0.6,0.2,1.2,0.5,1.7c0.2,0.7,0.5,1.3,0.8,1.9c0.8,0.8,2.6,0.5,3.6,0.4c2-0.2,4-0.5,6-0.9c0.1,0,0-0.1,0-0.1  C13.9,70.5,11.8,70.6,9.7,70.5z"/>
<path class="st1" d="M18.3,55.4C16.1,57,14,58.9,12,60.7s-4.7,3.8-6.5,6.1c-0.1,0.2,0,0.4,0.2,0.3C8,65.7,10,63.5,12,61.7  c2.2-2,4.4-4,6.4-6.2C18.5,55.5,18.4,55.3,18.3,55.4z"/>
<path class="st1" d="M9.9,71C9.8,71,9.9,71.1,9.9,71c1.2-0.6,2.3-1.4,3.2-2.4c0.1-0.1,0-0.2-0.1-0.1C12,69.2,10.9,70.1,9.9,71z"/>
<path class="st1" d="M14.9,68.1c-1.1,0.6-2.1,1.4-3,2.2c-0.1,0,0,0.2,0.1,0.1c1.1-0.6,2.1-1.3,3.1-2.1C15.1,68.2,15,68.1,14.9,68.1z  "/>
<path class="st1" d="M13.5,70.6c-0.1,0.1,0,0.2,0.1,0.2c0.7-0.6,1.4-1.1,2.1-1.7c0.1,0,0-0.2-0.1-0.1C14.9,69.4,14.2,70,13.5,70.6z"/>
<path class="st1" d="M47.3,68.5c-0.1,0.1,0,0.2,0.1,0.1c1.5-1.3,3-2.6,4.4-4c0,0,0-0.1-0.1-0.1C50.2,65.8,48.7,67.1,47.3,68.5z"/>
<path class="st1" d="M50.3,67.5C50.2,67.5,50.2,67.6,50.3,67.5C50.3,67.6,50.3,67.6,50.3,67.5L50.3,67.5c1.1-0.8,2.1-1.8,3.2-2.7   M53.5,64.8c-1.2,0.8-2.2,1.7-3.2,2.7L53.5,64.8z"/>
<path class="st1" d="M52.7,66.9c-0.1,0.1,0,0.2,0.1,0.1c1-0.8,2-1.7,2.8-2.6c0,0,0-0.1-0.1-0.1C54.5,65.1,53.6,66,52.7,66.9z"/>
<path class="st1" d="M56.9,64.3c-0.7,0.6-1.4,1.4-2,2.2c0,0.1,0,0.2,0.1,0.1c0.7-0.7,1.4-1.4,2-2.2C57,64.3,56.9,64.2,56.9,64.3z"/>
<path class="st1" d="M59,63.9c-0.7,0.5-1.3,1.2-1.9,1.9c0,0,0,0.1,0,0.1c0,0,0.1,0,0.1,0c0.7-0.5,1.3-1.2,1.9-1.8  C59.3,64,59.1,63.8,59,63.9z"/>
<path class="st1" d="M60.3,63.9c-0.6,0.4-1.1,0.9-1.5,1.5c0,0,0,0.1,0,0.2c0,0,0.1,0,0.1,0c0.6-0.4,1.1-0.9,1.5-1.5  c0,0,0.1-0.1,0-0.2C60.5,63.8,60.4,63.8,60.3,63.9L60.3,63.9z"/>
<path class="st1" d="M62.3,63.6c-0.5,0.5-1,0.9-1.5,1.4c-0.1,0.1-0.1,0.2,0,0.2c0.1,0.1,0.2,0.1,0.2,0c0.5-0.5,0.9-1,1.4-1.5  C62.6,63.7,62.4,63.5,62.3,63.6z"/>
<path class="st1" d="M63.2,64c-0.4,0.4-0.8,0.8-1.2,1.3c-0.1,0.1,0.1,0.3,0.2,0.2c0.4-0.4,0.8-0.8,1.1-1.3  C63.5,64.1,63.3,63.8,63.2,64z"/>
<path class="st1" d="M65.4,64c-0.6,0.5-1.1,1-1.5,1.7c-0.1,0.1,0.1,0.3,0.2,0.2c0.5-0.5,0.9-1.2,1.4-1.7c0,0,0-0.1,0-0.1  C65.5,63.9,65.4,63.9,65.4,64z"/>
<path class="st1" d="M75.6,66.6c0.3-0.6,0.6-1.1,0.8-1.7c-0.4,0.5-0.8,0.9-1.2,1.4L75.6,66.6z"/>
<path class="st1" d="M73.6,66.2c0.1-0.3,0.3-0.6,0.4-0.9l-0.7,0.5L73.6,66.2z"/>
<path class="st1" d="M77.7,63.3c-0.4,0.5-0.8,1-1.2,1.6c-0.3,0.6-0.5,1.1-0.8,1.7l-0.4-0.3c0.4-0.4,0.8-0.9,1.2-1.4l0.4-0.9  c0.1-0.1,0-0.2-0.1-0.3c0,0,0,0,0,0c-0.5-0.1-0.9,0.3-1.3,0.6L74,65.3c-0.1,0.3-0.2,0.6-0.4,0.9l-0.3-0.3l0.7-0.5  c0.1-0.2,0.2-0.4,0.3-0.6s-0.1-0.3-0.2-0.1c-0.3,0.4-0.6,0.9-0.8,1.4c-0.1,0.2,0.1,0.5,0.3,0.3l1.5-1.2c0.4-0.4,0.8-0.7,1.3-1  l0.2-0.4l0.2,0.3c-0.1,0-0.3,0-0.4,0.1c-0.4,0.7-0.8,1.4-1.2,2.2c-0.1,0.3,0.2,0.6,0.4,0.3c0.8-1,1.6-2,2.3-3.2  C77.9,63.4,77.7,63.2,77.7,63.3z"/>
<path class="st1" d="M76.6,63.7l-0.2,0.4c0.1-0.1,0.2-0.1,0.4-0.1L76.6,63.7z"/>
<path class="st1" d="M72.2,65.5c0.1-0.1,0.1-0.3,0.2-0.4L72,65.4L72.2,65.5z"/>
<path class="st1" d="M75,63.5c-0.8,0.6-1.7,1.2-2.6,1.6c-0.1,0.1-0.2,0.2-0.2,0.4L72,65.4l0.4-0.2l0.2-0.2c0.1-0.1,0-0.2-0.1-0.1  c-0.2,0.1-0.4,0.3-0.5,0.6c0,0.1,0,0.1,0,0.2c0,0,0.1,0,0.1,0c1.1-0.5,2.1-1.1,3-1.9C75.2,63.6,75.1,63.5,75,63.5z"/>
<path class="st1" d="M71.8,64.7c-0.3,0.2-0.6,0.4-0.8,0.6c-0.1,0.1,0,0.2,0.1,0.1l0.8-0.5C72,64.9,71.9,64.7,71.8,64.7z"/>
<path class="st1" d="M17.2,62.7c-0.1,0.1-0.3,0.2-0.5,0.2c0.2,0.1,0.4,0,0.8-0.1c0.1,0,0.1-0.1,0.1-0.2  C17.5,62.7,17.3,62.7,17.2,62.7z"/>
<path class="st1" d="M17.6,62.7h0.3l-0.3-0.5c0,0.1-0.1,0.1-0.1,0.2C17.6,62.5,17.7,62.6,17.6,62.7z"/>
<path class="st1" d="M17.1,62.7c0-0.1,0-0.2,0-0.3l-0.4,0.5h0c0.2,0,0.3-0.1,0.5-0.2C17.1,62.7,17.1,62.7,17.1,62.7z"/>
<path class="st1" d="M15.8,62.9l0.4,0.6c0.2-0.2,0.3-0.4,0.5-0.7C16.3,62.9,16,63,15.8,62.9z"/>
<path class="st1" d="M17.1,62.7c0,0,0.1,0,0.1,0c0.1-0.1,0.2-0.2,0.3-0.3c0,0-0.1-0.1-0.1-0.1h-0.2c0,0-0.1,0.1-0.1,0.1  C17,62.5,17.1,62.6,17.1,62.7z"/>
<path class="st1" d="M20.5,58c-1.7,1.7-3.4,3.2-5,5c-0.2,0.2-0.1,0.4,0,0.6c0.1,0.1,0.2,0.1,0.3,0.1c0.6,0.1,1.1,0.1,1.7-0.1  c0.5-0.2,0.5-0.7,0.8-1.1c0.1-0.2,0-0.4-0.1-0.5c0,0-0.1,0-0.1,0h-0.5l-0.3,0.3h0.2c0,0,0.1,0,0.1,0.1c0-0.1,0.1-0.1,0.1-0.2  l0.3,0.5h-0.3c0,0.1-0.1,0.1-0.1,0.2c-0.3,0.1-0.5,0.2-0.8,0.1h-0.1c-0.2,0.2-0.4,0.4-0.5,0.7l-0.4-0.6c0.3,0,0.6,0,0.9,0l0,0  l-0.1-0.1c-0.1-0.1-0.1-0.3-0.1-0.4c0.2-0.3,0.5-0.4,0.9-0.4c1.1-1.2,2.2-2.5,3.2-3.8C20.7,58.1,20.6,58,20.5,58z"/>
<path class="st1" d="M16.6,62.8l0.1,0.1l0.4-0.5v-0.1c-0.1-0.1-0.1-0.1,0.1,0l0.3-0.3c-0.4,0-0.8,0.1-0.9,0.4  C16.5,62.5,16.5,62.7,16.6,62.8z"/>
<path class="st1" d="M17.2,62.7c0.1,0,0.3,0,0.4,0c0-0.1,0-0.2-0.1-0.3C17.4,62.5,17.3,62.6,17.2,62.7z"/>
<path class="st1" d="M17,62.3L17,62.3c0,0.1,0.1,0,0.1,0C17,62.2,16.9,62.2,17,62.3z"/>
<path class="st1" d="M53.8,55.5c-0.6,0-1.1,0.1-1.7,0.2l0,0C52.6,55.6,53.2,55.6,53.8,55.5l-0.1,0.6c-0.5-0.1-1.1,0-1.6-0.2  c-0.1,0-0.1-0.2,0-0.2H52c-0.1,0.1-0.2,0.3-0.3,0.4l-0.2-0.3c0.2,0,0.3,0,0.5-0.1l0.2-0.3c0,0,0-0.1,0-0.2c0,0-0.1,0-0.1,0  c-0.3,0.2-0.5,0.4-0.7,0.6c-0.1,0.1-0.1,0.2,0,0.3c0,0,0.1,0.1,0.1,0.1c0.7,0,1.5,0,2.2-0.1C54.2,56,54.2,55.4,53.8,55.5z"/>
<path class="st1" d="M52.1,55.9c0.5,0.1,1.1,0,1.6,0.2v-0.6c-0.5,0.1-1.1,0.2-1.6,0.2C52,55.7,52,55.9,52.1,55.9z"/>
<path class="st1" d="M51.7,56.1c0.1-0.1,0.2-0.3,0.3-0.4c-0.2,0-0.3,0-0.5,0.1L51.7,56.1z"/>
<path class="st1" d="M52,57.1c-0.1,0-0.2,0.2-0.2,0.4c0,0.1,0.1,0.1,0.2,0.2c0.5,0.1,1.2,0.3,1.6-0.2c0.1-0.1,0.1-0.2,0-0.3  C53.3,56.7,52.5,56.9,52,57.1z"/>
<path class="st1" d="M52,59.1c-0.1,0-0.1,0.1-0.1,0.2c0,0,0.1,0.1,0.1,0.1c0.5,0.1,0.9,0,1.4-0.3c0,0,0.1-0.1,0-0.1c0,0,0,0,0,0  C52.9,58.9,52.5,58.9,52,59.1z"/>
<path class="st1" d="M27.5,48.3c-0.6,0-1.3-0.1-1.9-0.3c-0.8-0.3-1.4-1.1-1.4-1.9c-0.2-2.1-0.3-4.3-0.5-6.4c-0.4-4.7-0.5-9.4-1.1-14  c0-0.1-0.2-0.1-0.2,0c-0.2,6.1,0,12.4,0.2,18.6c0.1,1.6-0.1,4.2,1.5,4.9c0.6,0.2,1.3,0.3,2,0.1c1.5-0.3,3-0.5,4.4-0.9  c0,0,0.1,0,0.1-0.1c0,0,0-0.1-0.1-0.1C29.7,48.3,28.6,48.3,27.5,48.3z"/>
</svg>